<?xml version="1.0" encoding="utf-8"?>
<!-- Generator: Adobe Illustrator 16.0.4, SVG Export Plug-In . SVG Version: 6.00 Build 0)  -->
<!DOCTYPE svg PUBLIC "-//W3C//DTD SVG 1.1//EN" "http://www.w3.org/Graphics/SVG/1.1/DTD/svg11.dtd">
<svg version="1.1" id="Layer_1" xmlns="http://www.w3.org/2000/svg" xmlns:xlink="http://www.w3.org/1999/xlink" x="0px" y="0px"
	 width="500px" height="500px" viewBox="-223.5 -223.5 500 500" enable-background="new -223.5 -223.5 500 500"
	 xml:space="preserve">
<g>
	<path d="M244.521,204.584h-253.5c-5.458,0-9.867,4.414-9.867,9.867c0,5.475,4.408,9.869,9.867,9.869h253.48
		c5.454,0,9.868-4.395,9.868-9.869C254.39,208.998,249.947,204.584,244.521,204.584z"/>
	<path d="M244.521,34.82h-253.5c-5.458,0-9.867,4.414-9.867,9.867c0,5.465,4.408,9.867,9.867,9.867h253.48
		c5.454,0,9.868-4.402,9.868-9.867C254.39,39.234,249.947,34.82,244.521,34.82z"/>
	<path d="M-8.978-115.209h253.48c5.454,0,9.868-4.399,9.868-9.868c0-5.455-4.414-9.868-9.868-9.868H-8.978
		c-5.458,0-9.867,4.414-9.867,9.868C-18.845-119.617-14.437-115.209-8.978-115.209z"/>
	<path d="M-82.05-17.352h-104.348c-5.449,0-9.867,4.414-9.867,9.868V96.858c0,5.455,4.418,9.868,9.867,9.868H-82.05
		c5.449,0,9.868-4.413,9.868-9.868V-7.483C-72.182-12.938-76.601-17.352-82.05-17.352z M-91.919,86.992h-84.612V2.384h84.612V86.992
		z"/>
	<path d="M-82.05,152.413h-104.348c-5.449,0-9.867,4.413-9.867,9.867v104.352c0,5.455,4.418,9.868,9.867,9.868H-82.05
		c5.449,0,9.868-4.413,9.868-9.868V162.28C-72.182,156.826-76.601,152.413-82.05,152.413z M-91.919,256.766h-84.612v-84.617h84.612
		V256.766z"/>
	<path d="M-63.341-196.506l-86.935,106.058l-28.794-31.973c-3.638-4.052-9.887-4.379-13.93-0.728
		c-4.056,3.643-4.384,9.887-0.732,13.935l36.479,40.506c1.878,2.083,4.543,3.252,7.333,3.252c0.081,0,0.158,0,0.216,0
		c2.872-0.067,5.576-1.388,7.401-3.599l94.229-114.947c3.45-4.216,2.828-10.432-1.392-13.886
		C-53.671-201.329-59.888-200.723-63.341-196.506z"/>
</g>
</svg>
